<svg width="166" height="32" viewBox="0 0 166 32" fill="none" xmlns="http://www.w3.org/2000/svg">
<g clip-path="url(#clip0_251_3650)">
<path fill-rule="evenodd" clip-rule="evenodd" d="M91.2119 10.2856C93.0047 10.2856 94.4117 10.8439 95.4372 11.9624C96.4636 13.079 97.0112 14.6727 97.0854 16.7407C97.101 16.9417 97.1092 17.2122 97.1115 17.5531L97.1122 17.7662C97.1122 18.2093 97.1041 18.5604 97.0854 18.8185C97.0112 20.8151 96.4565 22.3846 95.4238 23.5299C94.3885 24.6751 92.9833 25.2477 91.2119 25.2477C89.419 25.2477 88.079 24.6376 87.1937 23.4191V29.5419C87.1937 29.7455 87.1285 29.9117 86.999 30.0403C86.8704 30.1708 86.7042 30.2351 86.5005 30.2351H82.9264C82.7245 30.2351 82.5521 30.1708 82.4145 30.0403C82.2751 29.9117 82.2055 29.7455 82.2055 29.5419V11.2548C82.2055 11.0521 82.2751 10.885 82.4145 10.7573C82.5521 10.6269 82.7245 10.5616 82.9264 10.5616H86.2236C86.4264 10.5616 86.5934 10.6269 86.7212 10.7573C86.8525 10.885 86.9159 11.0521 86.9159 11.2548V12.2527C87.9146 10.9404 89.3448 10.2856 91.2119 10.2856ZM37.7357 5.29797C39.3624 5.29797 40.7693 5.57936 41.9619 6.14304C43.1527 6.70672 44.0683 7.40797 44.7035 8.24769C45.3422 9.08919 45.6781 9.9155 45.7165 10.7284C45.7165 10.8946 45.6593 11.0375 45.5495 11.1581C45.4387 11.2787 45.3011 11.3386 45.135 11.3386H41.2544C40.8488 11.3386 40.5344 11.1715 40.3138 10.8392C40.203 10.4515 39.9144 10.1236 39.4544 9.85565C38.9925 9.58766 38.4199 9.45366 37.7357 9.45366C36.9603 9.45366 36.3608 9.59213 35.9347 9.86905C35.5104 10.1469 35.2987 10.5524 35.2987 11.0884C35.2987 11.6253 35.5738 12.0443 36.1295 12.3498C36.6833 12.6544 37.7187 12.9644 39.2311 13.2779C40.9677 13.5924 42.3496 13.9845 43.3733 14.4553C44.3998 14.9261 45.1573 15.5362 45.6468 16.2839C46.1364 17.0325 46.382 17.9785 46.382 19.1238C46.382 20.3807 46.0211 21.4705 45.3011 22.3933C44.5802 23.3179 43.5833 24.0245 42.3076 24.5131C41.0329 25.0027 39.5741 25.2474 37.9304 25.2474C36.1375 25.2474 34.6135 24.9884 33.3575 24.472C32.1015 23.9548 31.1493 23.2714 30.5052 22.421C29.8575 21.5723 29.5145 20.6478 29.4788 19.6508C29.4788 19.4847 29.5404 19.3462 29.6592 19.2354C29.7789 19.1238 29.9227 19.0684 30.088 19.0684H33.7747C33.9954 19.0684 34.1758 19.105 34.3134 19.1801C34.4536 19.2533 34.6046 19.3828 34.7707 19.5678C35.0102 20.0108 35.3853 20.3762 35.8945 20.6612C36.401 20.9497 37.08 21.0908 37.9304 21.0908C38.9264 21.0908 39.6938 20.939 40.2298 20.6344C40.7649 20.3297 41.0329 19.9099 41.0329 19.3739C41.0329 18.9853 40.8953 18.6673 40.6184 18.4181C40.3406 18.1679 39.8966 17.9464 39.2882 17.7534C38.679 17.5587 37.8 17.3425 36.6556 17.1013C34.4188 16.6582 32.7483 15.9838 31.6415 15.078C30.532 14.1739 29.9772 12.8804 29.9772 11.2001C29.9772 10.054 30.297 9.0338 30.9331 8.13781C31.5718 7.24271 32.4758 6.54503 33.6479 6.04657C34.8235 5.54631 36.1849 5.29797 37.7357 5.29797ZM141.641 10.2856C143.23 10.2856 144.574 10.6036 145.672 11.2414C146.773 11.8784 147.594 12.7556 148.139 13.8731C148.682 14.9916 148.955 16.261 148.955 17.684V18.3754C148.955 18.5791 148.887 18.7497 148.748 18.8891C148.61 19.0267 148.439 19.0963 148.235 19.0963H139.453V19.2625C139.471 20.0942 139.666 20.7642 140.035 21.2716C140.403 21.7799 140.931 22.0336 141.613 22.0336C142.057 22.0336 142.412 21.946 142.681 21.7691C142.948 21.5949 143.203 21.368 143.442 21.0902C143.609 20.9071 143.742 20.7919 143.843 20.7454C143.945 20.699 144.107 20.6766 144.328 20.6766H147.959C148.125 20.6766 148.267 20.7266 148.389 20.8285C148.509 20.9303 148.567 21.0545 148.567 21.2019C148.567 21.6834 148.295 22.2453 147.751 22.8929C147.205 23.5388 146.411 24.0935 145.368 24.5545C144.323 25.0163 143.091 25.2477 141.67 25.2477C139.415 25.2477 137.642 24.642 136.348 23.4334C135.055 22.2229 134.391 20.464 134.355 18.1539V17.2945C134.426 15.0979 135.11 13.3791 136.404 12.141C137.697 10.9047 139.442 10.2856 141.641 10.2856ZM165.136 5.29806C165.339 5.29806 165.511 5.36327 165.648 5.49191C165.786 5.62144 165.856 5.7867 165.856 5.98948V24.2783C165.856 24.482 165.786 24.6481 165.648 24.7767C165.511 24.9063 165.339 24.9706 165.136 24.9706H161.838C161.653 24.9706 161.492 24.9018 161.353 24.7633C161.216 24.6249 161.144 24.4632 161.144 24.2783V23.4189C160.148 24.6374 158.717 25.2475 156.852 25.2475C155.059 25.2475 153.65 24.6838 152.626 23.5574C151.6 22.4309 151.05 20.8238 150.979 18.7362L150.948 17.766L150.979 16.77C151.05 14.7556 151.605 13.1717 152.64 12.0176C153.672 10.8634 155.077 10.2854 156.852 10.2854C158.514 10.2854 159.853 10.8214 160.867 11.8916V5.98948C160.867 5.7867 160.938 5.62144 161.075 5.49191C161.216 5.36327 161.378 5.29806 161.562 5.29806H165.136ZM52.8936 10.5615C53.0963 10.5615 53.2688 10.6267 53.4054 10.7571C53.543 10.8848 53.6136 11.0519 53.6136 11.2547V24.2783C53.6136 24.482 53.543 24.6481 53.4054 24.7767C53.2688 24.9063 53.0963 24.9697 52.8936 24.9697H49.4302C49.2453 24.9697 49.0827 24.9018 48.9451 24.7633C48.8058 24.6249 48.7361 24.4632 48.7361 24.2783V11.2547C48.7361 11.0519 48.8058 10.8848 48.9451 10.7571C49.0827 10.6267 49.2453 10.5615 49.4302 10.5615H52.8936ZM74.0608 10.2854C75.5758 10.2854 76.8095 10.7973 77.7609 11.8237C78.7105 12.8483 79.1857 14.3768 79.1857 16.4082V24.2783C79.1857 24.4632 79.1232 24.6249 78.9928 24.7633C78.8632 24.9018 78.6971 24.9697 78.4943 24.9697H75.0872C74.8835 24.9697 74.7129 24.9063 74.5727 24.7767C74.4351 24.6481 74.3654 24.482 74.3654 24.2783V16.602C74.3654 15.7534 74.185 15.1299 73.8258 14.7323C73.4649 14.3357 72.9808 14.1365 72.3715 14.1365C71.7989 14.1365 71.3317 14.3357 70.9717 14.7323C70.6108 15.1299 70.4304 15.7534 70.4304 16.602V24.2783C70.4304 24.4632 70.3669 24.6249 70.2365 24.7633C70.1079 24.9018 69.9408 24.9697 69.738 24.9697H66.3309C66.1282 24.9697 65.9566 24.9063 65.8173 24.7767C65.6788 24.6481 65.6092 24.482 65.6092 24.2783V16.602C65.6092 15.7534 65.4242 15.1299 65.0571 14.7323C64.6873 14.3357 64.2067 14.1365 63.6162 14.1365C63.0436 14.1365 62.5719 14.3357 62.2021 14.7323C61.8331 15.1299 61.6482 15.7436 61.6482 16.5744V24.2783C61.6482 24.4632 61.5821 24.6249 61.4535 24.7633C61.3248 24.9018 61.1587 24.9697 60.955 24.9697H57.4648C57.2799 24.9697 57.1173 24.9018 56.9798 24.7633C56.8404 24.6249 56.7707 24.4632 56.7707 24.2783V11.2547C56.7707 11.0519 56.8404 10.8848 56.9798 10.7571C57.1173 10.6267 57.2799 10.5615 57.4648 10.5615H60.6781C60.8809 10.5615 61.0479 10.6267 61.1756 10.7571C61.3052 10.8848 61.3704 11.0519 61.3704 11.2547V12.1962C61.8144 11.6611 62.387 11.2091 63.0882 10.8393C63.7895 10.4703 64.5863 10.2854 65.4716 10.2854C67.503 10.2854 68.8974 11.0796 69.6541 12.6679C70.0989 11.9666 70.7171 11.394 71.5131 10.9509C72.3063 10.507 73.1559 10.2854 74.0608 10.2854ZM103.959 5.29779C104.161 5.29779 104.328 5.363 104.457 5.49164C104.585 5.62117 104.651 5.78733 104.651 5.99011V24.278C104.651 24.4629 104.585 24.6246 104.457 24.7631C104.328 24.9024 104.161 24.9703 103.959 24.9703H100.494C100.293 24.9703 100.12 24.9069 99.9835 24.7765C99.8432 24.6478 99.7735 24.4817 99.7735 24.278V5.99011C99.7735 5.78733 99.8432 5.62117 99.9835 5.49164C100.12 5.363 100.293 5.29779 100.494 5.29779H103.959ZM111.966 10.5615C112.168 10.5615 112.34 10.6267 112.478 10.7571C112.615 10.8848 112.686 11.0519 112.686 11.2547V24.2783C112.686 24.482 112.615 24.6481 112.478 24.7767C112.34 24.9063 112.168 24.9697 111.966 24.9697H108.502C108.317 24.9697 108.155 24.9018 108.017 24.7633C107.878 24.6249 107.808 24.4632 107.808 24.2783V11.2547C107.808 11.0519 107.878 10.8848 108.017 10.7571C108.155 10.6267 108.317 10.5615 108.502 10.5615H111.966ZM131.059 4.46701C131.261 4.46701 131.426 4.53044 131.556 4.66086C131.685 4.79039 131.75 4.95655 131.75 5.15933V7.54269C131.75 7.7276 131.685 7.8884 131.556 8.02686C131.426 8.16622 131.261 8.23411 131.059 8.23411H123.937C123.344 8.23411 122.924 8.369 122.674 8.6361C122.426 8.9041 122.303 9.31591 122.303 9.86977V10.5612H131.059C131.261 10.5612 131.426 10.6273 131.556 10.7568C131.685 10.8855 131.75 11.0525 131.75 11.2553V24.278C131.75 24.4629 131.685 24.6246 131.556 24.7631C131.426 24.9024 131.261 24.9703 131.059 24.9703H127.675C127.473 24.9703 127.303 24.9069 127.164 24.7765C127.026 24.6478 126.957 24.4817 126.957 24.278V14.331H122.303V24.278C122.303 24.4629 122.237 24.6246 122.109 24.7631C121.977 24.9024 121.81 24.9703 121.608 24.9703H118.227C118.024 24.9703 117.853 24.9069 117.715 24.7765C117.576 24.6478 117.509 24.4817 117.509 24.278V14.331H115.428C115.227 14.331 115.054 14.2667 114.918 14.1371C114.777 14.0067 114.71 13.8414 114.71 13.6378V11.2553C114.71 11.0525 114.777 10.8855 114.918 10.7568C115.054 10.6273 115.227 10.5612 115.428 10.5612H117.509V9.73041C117.509 7.88393 118.042 6.54486 119.113 5.71407C120.185 4.88151 121.717 4.46701 123.714 4.46701H131.059ZM158.457 14.1374C157.627 14.1374 157.03 14.3813 156.672 14.8708C156.311 15.3603 156.103 16.0384 156.046 16.9067L156.019 17.766L156.046 18.6254C156.103 19.4937 156.311 20.1726 156.672 20.6613C157.03 21.1517 157.627 21.3973 158.457 21.3973C159.251 21.3973 159.844 21.1427 160.232 20.6345C160.62 20.1262 160.832 19.4848 160.867 18.7094C160.906 18.1912 160.924 17.8402 160.924 17.6553C160.924 17.4525 160.906 17.1112 160.867 16.6315C160.832 15.9106 160.616 15.3139 160.218 14.8431C159.82 14.3723 159.233 14.1374 158.457 14.1374ZM89.6039 14.1367C88.8097 14.1367 88.2193 14.3904 87.8316 14.8987C87.4439 15.4061 87.2322 16.0493 87.1937 16.8247C87.1781 17.0249 87.1699 17.3015 87.1676 17.6559L87.1669 17.8779C87.1669 18.321 87.175 18.6631 87.1937 18.9025C87.2322 19.6234 87.4483 20.2183 87.845 20.6891C88.2425 21.1608 88.8285 21.3966 89.6039 21.3966C90.4365 21.3966 91.0314 21.1519 91.3923 20.6614C91.7523 20.1728 91.9605 19.493 92.0141 18.6256C92.0328 18.4415 92.0435 18.1539 92.0435 17.7662C92.0435 17.3776 92.0328 17.0918 92.0141 16.9068C91.9605 16.0385 91.7523 15.3596 91.3923 14.871C91.0314 14.3814 90.4365 14.1367 89.6039 14.1367ZM141.641 13.4167C140.939 13.4167 140.398 13.6614 140.021 14.1501C139.642 14.6396 139.453 15.3284 139.453 16.2145V16.2699H143.857V16.2145C143.857 15.3284 143.663 14.6396 143.275 14.1501C142.887 13.6614 142.344 13.4167 141.641 13.4167ZM52.8936 4.54946C53.0963 4.54946 53.2688 4.61914 53.4054 4.75761C53.543 4.89607 53.6136 5.06669 53.6136 5.26947V7.84668C53.6136 8.05125 53.543 8.22098 53.4054 8.35944C53.2688 8.49791 53.0963 8.56759 52.8936 8.56759H49.4302C49.2247 8.56759 49.0604 8.49791 48.929 8.35944C48.8013 8.22098 48.7361 8.05125 48.7361 7.84668V5.26947C48.7361 5.06669 48.8058 4.89607 48.9451 4.75761C49.0827 4.61914 49.2453 4.54946 49.4302 4.54946H52.8936ZM111.966 4.54946C112.168 4.54946 112.34 4.61914 112.478 4.75761C112.615 4.89607 112.686 5.06669 112.686 5.26947V7.84668C112.686 8.05125 112.615 8.22098 112.478 8.35944C112.34 8.49791 112.168 8.56759 111.966 8.56759H108.502C108.297 8.56759 108.132 8.49791 108.001 8.35944C107.873 8.22098 107.808 8.05125 107.808 7.84668V5.26947C107.808 5.06669 107.878 4.89607 108.017 4.75761C108.155 4.61914 108.317 4.54946 108.502 4.54946H111.966Z" fill="white"/>
<path fill-rule="evenodd" clip-rule="evenodd" d="M24.0029 11.1536V21.2597L23.3713 21.8913L18.3178 26.9456L15.16 30.1035C13.7637 31.4988 11.5019 31.4988 10.1065 30.1035C8.71114 28.7081 8.71114 26.4454 10.1065 25.05L13.2644 21.8913L18.3178 16.8387L18.9494 16.2071L24.0029 11.1536ZM22.7399 9.89023L17.6864 14.9437L17.0549 15.5753L12.0014 20.6287L11.3698 21.2603H1.26288L6.94792 15.5753L12.0014 10.5218L12.633 9.89023H22.7399ZM8.8429 1.04652C10.2383 -0.348839 12.501 -0.348839 13.8964 1.04652C15.2917 2.44187 15.2917 4.70463 13.8964 6.09999L5.05258 14.9438L0 19.9964V9.89031L0.631572 9.25785L5.68415 4.20527L8.8429 1.04652Z" fill="#FFAD00"/>
</g>
<defs>
<clipPath id="clip0_251_3650">
<rect width="165.856" height="31.15" fill="white"/>
</clipPath>
</defs>
</svg>
